<svg width="318" height="252" viewBox="0 0 318 252" fill="none" xmlns="http://www.w3.org/2000/svg">
<path d="M35.5 118.091C93.3219 125.846 262.675 136.25 210.728 249.591H293.751C316.941 199.681 342.173 86.4994 257.573 33.0502C172.974 -20.399 71.108 5.70921 2 33.0502L35.5 118.091Z" fill="#595959" stroke="#BDBABA" stroke-width="3"/>
<path d="M120.387 64.2624C119.832 64.8769 119.88 65.8254 120.494 66.381L130.508 75.4345C131.123 75.99 132.071 75.9422 132.627 75.3277C133.182 74.7132 133.135 73.7647 132.52 73.2091L123.619 65.1616L131.666 56.26C132.222 55.6455 132.174 54.697 131.559 54.1414C130.945 53.5858 129.996 53.6336 129.441 54.2481L120.387 64.2624ZM263.681 223.728C272.135 205.692 281.417 158.796 251.495 114.497L249.009 116.176C278.196 159.386 269.092 205.116 260.964 222.454L263.681 223.728ZM251.495 114.497C236.442 92.2105 211.524 79.1652 186.692 71.8766C161.842 64.583 136.872 62.9919 121.425 63.7702L121.575 66.7664C136.731 66.0028 161.36 67.5681 185.847 74.7552C210.351 81.9473 234.508 94.7069 249.009 116.176L251.495 114.497Z" fill="white"/>
</svg>
